<svg xmlns="http://www.w3.org/2000/svg" version="1.1" xmlns:xlink="http://www.w3.org/1999/xlink" xmlns:svgjs="http://svgjs.com/svgjs" width="512" height="512" x="0" y="0" viewBox="0 0 33 33" style="enable-background:new 0 0 512 512" xml:space="preserve" class=""><g><g fill="#231f20"><path d="M6.538 7.782a.616.616 0 0 0-.857.178 7.876 7.876 0 0 0-.017 8.613.621.621 0 0 0 1.04-.677 6.634 6.634 0 0 1 .014-7.256.62.62 0 0 0-.18-.858zM18.895 7.986a.62.62 0 0 0-1.04.675 6.635 6.635 0 0 1-.014 7.257.62.62 0 0 0 1.037.68 7.878 7.878 0 0 0 .017-8.612zM31.826 28.572l-7.487-7.488-3.254 3.254 7.486 7.488a2.303 2.303 0 0 0 3.255 0 2.3 2.3 0 0 0 0-3.254z" fill="#1d94d1" opacity="1" data-original="#231f20" class=""></path><path d="M22.942 18.775a1.594 1.594 0 0 0-.608-.373c2.76-4.535 2.194-10.54-1.722-14.456C16.016-.65 8.541-.65 3.946 3.946c-4.595 4.594-4.595 12.07 0 16.667 3.916 3.916 9.921 4.48 14.455 1.721.076.223.197.432.374.607.62.621 1.627.621 2.247 0l1.92-1.918a1.59 1.59 0 0 0 0-2.248zM5.7 18.857C2.073 15.23 2.073 9.327 5.7 5.7c3.628-3.627 9.529-3.627 13.158 0 3.627 3.627 3.627 9.529 0 13.157-3.629 3.629-9.53 3.629-13.158 0z" fill="#1d94d1" opacity="1" data-original="#231f20" class=""></path></g></g></svg>